<svg xmlns="http://www.w3.org/2000/svg" viewBox="0 0 32 32" fill="none">
  <defs>
    <linearGradient id="g" x1="0%" y1="0%" x2="100%" y2="100%">
      <stop offset="0%" style="stop-color:#22d3ee"/>
      <stop offset="100%" style="stop-color:#7c3aed"/>
    </linearGradient>
  </defs>
  <rect width="32" height="32" rx="8" fill="url(#g)"/>
  <path fill="white" fill-opacity="0.95" d="M16 7c-3 0-5.5 2.2-5.5 5v3.5c0 .6-.4 1-1 1s-1 .4-1 1V19c0 3.3 2.7 6 6 6h1c3.3 0 6-2.7 6-6v-1.5c0-.6-.4-1-1-1s-1-.4-1-1V12c0-2.8-2.5-5-5.5-5Zm0 2c2.2 0 3.5 1.5 3.5 3v4h-7V12c0-1.7 1.3-3 3.5-3Z"/>
</svg>
